<svg xmlns="http://www.w3.org/2000/svg" width="213" height="213" viewBox="0 0 213 213" fill="none">
  <path fill-rule="evenodd" clip-rule="evenodd" d="M168.565 37.4371C166.073 30.6971 158.589 27.2536 151.849 29.7458L46.0825 68.8541C39.3425 71.3463 35.899 78.8304 38.3912 85.5703L77.4995 191.336C79.9917 198.076 87.4758 201.52 94.2158 199.028L122.669 188.507C120.556 182.2 120.993 175.27 123.899 169.187C126.859 162.989 132.14 158.178 138.579 155.814C145.018 153.45 152.088 153.725 158.233 156.58C164.228 159.365 168.865 164.383 171.179 170.57L199.982 159.919C206.722 157.427 210.165 149.943 207.673 143.203L196.767 113.709C190.356 116.095 183.335 115.966 177.213 113.344C171.014 110.689 166.245 105.695 163.955 99.461C161.664 93.2268 162.041 86.2629 165 80.1013C167.909 74.0473 173.077 69.2551 179.399 66.7376L168.565 37.4371Z" fill="white"/>
  <ellipse cx="25.8629" cy="21.1624" rx="25.8629" ry="21.1624" transform="matrix(0.937934 -0.346813 0.334018 0.942567 65.5319 32.9929)" fill="white"/>
  <ellipse cx="21.856" cy="25.0422" rx="21.856" ry="25.0422" transform="matrix(0.937934 -0.346813 0.334018 0.942567 25.3075 123.702)" fill="white"/>
</svg>