<svg xmlns="http://www.w3.org/2000/svg" width="78" height="76" viewBox="0 0 78 76" fill="#2476F0">
  <path d="M52.3857 0.861969C52.9968 0.114457 54.2075 0.581272 54.1586 1.54554L52.6182 31.9214C52.6017 32.2464 52.7444 32.559 53.0006 32.7595L77.589 52.0032C78.3665 52.6117 77.8856 53.8591 76.9009 53.7881L45.758 51.5443C45.4335 51.5209 45.1179 51.6568 44.9119 51.9088L25.6618 75.4565C25.0507 76.204 23.84 75.7372 23.8889 74.773L25.4293 44.3971C25.4458 44.0721 25.3032 43.7595 25.0469 43.559L0.458476 24.3153C-0.318999 23.7068 0.161936 22.4594 1.14666 22.5304L32.2895 24.7742C32.614 24.7976 32.9296 24.6617 33.1356 24.4098L52.3857 0.861969Z" fill="#2476F0"/>
</svg>