<svg xmlns="http://www.w3.org/2000/svg" width="66" height="66" viewBox="0 0 66 66" fill="#37C0FB">
  <path d="M16.5836 4.50991C16.471 3.5806 17.5828 3.01988 18.2631 3.66284L28.9561 13.7678C29.4095 14.1962 30.1401 14.1095 30.4807 13.5869L38.5134 1.26116C39.0245 0.476891 40.2366 0.762002 40.3445 1.69187L42.0405 16.306C42.1124 16.9256 42.7278 17.3289 43.3246 17.1475L57.4009 12.8687C58.2965 12.5964 59.0418 13.594 58.5267 14.3757L50.4321 26.6609C50.0889 27.1817 50.3012 27.8863 50.875 28.1309L64.4083 33.9012C65.2694 34.2684 65.1991 35.5116 64.3021 35.7793L50.2046 39.9872C49.6068 40.1656 49.3165 40.8417 49.5988 41.398L56.2569 54.5174C56.6806 55.3521 55.8276 56.2593 54.9684 55.8878L41.4642 50.0495C40.8916 49.802 40.2346 50.1333 40.0933 50.7409L36.7608 65.0706C36.5487 65.9824 35.3122 66.1291 34.8928 65.2922L28.3008 52.1395C28.0213 51.5818 27.305 51.4133 26.8062 51.7879L15.0423 60.623C14.2938 61.1852 13.2523 60.5027 13.469 59.592L16.8736 45.2792C17.0179 44.6723 16.5776 44.0829 15.9547 44.0492L1.26392 43.2556C0.329168 43.2051 -0.0299729 42.0129 0.721364 41.4545L12.5296 32.6787C13.0302 32.3066 13.0718 31.572 12.6162 31.1458L1.87259 21.0948C1.18899 20.4553 1.68025 19.3111 2.61473 19.3663L17.3013 20.2338C17.924 20.2706 18.428 19.7346 18.353 19.1153L16.5836 4.50991Z" fill="#37C0FB"/>
</svg>